<svg xmlns="http://www.w3.org/2000/svg" width="34" height="34" viewBox="0 0 34 34">
    <defs>
        <style>.a{fill:#807f7f;}</style>
    </defs>
    <title>VK</title>
    <path class="a"
          d="M0,0V34H34V0ZM33,33H1V1H33ZM12.32,19.5a5.33,5.33,0,0,0,4.24,1.86h1.06a.46.46,0,0,0,.44-.09.55.55,0,0,0,.18-.35s0-1.41.62-1.59,1.41,1.33,2.3,1.94a1.66,1.66,0,0,0,1.15.35h2.3s1.15,0,.62-1a6.55,6.55,0,0,0-1.68-1.94c-1.41-1.33-1.24-1.15.62-3.53,1.06-1.33,1.41-2.21,1.33-2.56s-.88-.27-.88-.27H22a.88.88,0,0,0-.35.09.66.66,0,0,0-.26.27,15.42,15.42,0,0,1-1,2c-1.15,1.94-1.59,2-1.77,1.94-.44-.35-.35-1.15-.35-1.77,0-1.86.35-2.65-.53-2.83-.35,0-.53-.09-1.24-.09a7,7,0,0,0-2.12.18c-.27.18-.53.53-.35.53a.91.91,0,0,1,.71.35,2.46,2.46,0,0,1,.26,1.15s.18,2.21-.35,2.47c-.35.18-.79-.18-1.85-1.94A12.28,12.28,0,0,1,12,12.87a1.27,1.27,0,0,0-.18-.27c-.09-.18-.35-.18-.35-.18H8.26a.69.69,0,0,0,0,.44A28.43,28.43,0,0,0,12.32,19.5Z"/>
</svg>