<svg xmlns="http://www.w3.org/2000/svg" width="34" height="34" viewBox="0 0 34 34">
    <defs>
        <style>.a{fill:#807f7f;}</style>
    </defs>
    <title>INSTA</title>
    <path class="a"
          d="M0,0V34H34V0ZM33,33H1V1H33ZM21.25,13.81a1,1,0,0,0,1-1,1.06,1.06,0,0,0-1-1,1.12,1.12,0,0,0-1,1A1.11,1.11,0,0,0,21.25,13.81ZM17,21a4,4,0,1,0-4-4A4,4,0,0,0,17,21Zm0-6.41A2.4,2.4,0,1,1,14.59,17,2.36,2.36,0,0,1,17,14.62ZM13.63,25h6.74A4.65,4.65,0,0,0,25,20.38V13.65A4.65,4.65,0,0,0,20.37,9H13.63A4.65,4.65,0,0,0,9,13.65v6.73A4.65,4.65,0,0,0,13.63,25ZM10.58,13.49a2.88,2.88,0,0,1,2.89-2.88h7.07a2.88,2.88,0,0,1,2.89,2.88v7a2.88,2.88,0,0,1-2.89,2.88H13.47a2.88,2.88,0,0,1-2.89-2.88Z"/>
</svg>